<?xml version="1.0" standalone="no"?>
<!DOCTYPE svg PUBLIC "-//W3C//DTD SVG 20010904//EN"
 "http://www.w3.org/TR/2001/REC-SVG-20010904/DTD/svg10.dtd">
<svg version="1.0" xmlns="http://www.w3.org/2000/svg"
 width="380.000000pt" height="392.000000pt" viewBox="0 0 380.000000 392.000000"
 preserveAspectRatio="xMidYMid meet">
<metadata>
Created by potrace 1.16, written by Peter Selinger 2001-2019
</metadata>
<g transform="translate(0.000000,392.000000) scale(0.100000,-0.100000)"
fill="#000000" stroke="none">
<path d="M0 1960 l0 -1960 1900 0 1900 0 0 1960 0 1960 -1900 0 -1900 0 0
-1960z m2390 1545 c11 -10 20 -14 20 -9 0 5 9 -2 20 -16 15 -20 21 -23 31 -12
15 14 69 16 69 2 0 -5 -11 -10 -25 -10 -14 0 -25 -4 -25 -10 0 -5 15 -10 33
-10 29 0 35 -5 51 -40 10 -24 16 -59 15 -91 -2 -43 1 -54 21 -69 15 -11 21
-23 17 -34 -4 -10 -1 -16 8 -16 30 0 14 -17 -27 -29 -24 -7 -58 -22 -75 -33
-18 -11 -37 -17 -42 -14 -10 6 -18 -26 -20 -78 -1 -35 -11 -49 -11 -17 0 16
-4 21 -15 18 -24 -10 -27 12 -6 46 20 32 20 33 1 45 -11 7 -50 12 -88 12 -37
0 -73 5 -79 11 -17 17 -94 18 -125 3 -15 -8 -38 -14 -51 -14 -27 0 -83 -53
-73 -69 9 -14 -23 -14 -80 0 -40 10 -43 13 -27 25 15 11 15 13 3 14 -10 0 -11
3 -4 8 6 4 14 24 17 44 5 31 3 36 -11 31 -12 -4 -14 -3 -7 4 6 6 27 16 47 23
36 11 60 30 39 30 -6 0 -11 7 -11 15 0 9 9 15 24 15 21 0 24 5 28 45 3 39 1
44 -14 39 -30 -9 -21 31 15 70 19 21 50 39 77 47 25 7 48 17 51 22 9 12 113
26 167 22 24 -1 52 -11 62 -20z m-434 -507 c65 -25 98 -54 101 -89 5 -47 26
-109 35 -103 5 3 5 11 -1 18 -6 7 -13 38 -17 70 l-7 58 31 -16 c17 -9 37 -16
44 -16 7 0 27 -7 43 -16 35 -18 106 -12 126 12 6 8 28 22 48 31 20 9 40 19 45
21 5 3 7 -15 4 -42 -6 -46 -49 -126 -69 -126 -5 0 -8 4 -4 9 3 5 1 12 -5 16
-5 3 -10 2 -10 -4 0 -6 -11 -13 -25 -17 -25 -6 -35 -24 -14 -24 5 0 7 -5 3
-11 -10 -16 -113 -5 -153 16 -18 9 -30 12 -26 6 10 -17 56 -38 98 -46 29 -6
35 -10 27 -20 -7 -9 2 -8 34 3 37 14 47 14 60 3 27 -23 1 -41 -59 -41 -46 0
-57 -4 -74 -27 -30 -37 -33 -55 -23 -168 5 -55 6 -104 2 -108 -12 -13 -50 2
-50 20 0 8 -9 17 -20 20 -11 3 -20 9 -20 14 0 5 -9 9 -20 9 -12 0 -41 21 -65
47 -25 26 -45 43 -45 38 0 -6 -12 10 -26 34 -36 65 -41 119 -15 174 20 41 20
47 7 86 -9 23 -13 47 -10 55 3 8 -2 30 -10 51 -18 41 -21 85 -7 85 5 0 35 -10
67 -22z m539 -50 c4 -18 9 -46 11 -62 2 -16 11 -40 19 -52 24 -37 18 -69 -16
-98 -34 -29 -59 -34 -59 -11 0 15 -16 18 -82 15 -32 -1 -38 2 -38 19 0 12 -6
21 -15 21 -8 0 -15 5 -15 10 0 14 28 12 33 -2 10 -29 97 92 97 134 0 18 41 69
50 63 4 -3 11 -19 15 -37z m385 -83 c-12 -44 -34 -73 -68 -92 -31 -18 -143
-17 -168 2 -10 8 -15 15 -11 15 5 0 1 7 -8 16 -23 23 -15 50 14 46 30 -3 76
-40 76 -60 0 -10 10 -18 25 -21 30 -4 90 27 90 46 0 7 5 13 10 13 6 0 10 16
10 36 0 21 -4 33 -10 29 -24 -15 -4 38 28 76 16 19 17 18 20 -23 2 -23 -2 -61
-8 -83z m-480 -315 c36 -6 73 -13 83 -16 26 -8 10 -24 -25 -24 -23 0 -29 -4
-24 -16 5 -14 -1 -15 -44 -9 -53 7 -54 7 -44 -43 5 -24 15 -34 48 -48 28 -12
36 -19 24 -21 -10 -3 -18 -9 -18 -15 0 -6 -9 -3 -20 7 -11 10 -28 15 -40 12
-11 -3 -26 0 -33 7 -7 7 -19 11 -27 8 -8 -3 -12 -1 -8 3 4 4 -2 23 -13 42 -19
34 -30 106 -18 118 3 3 21 -1 40 -9 20 -8 41 -11 48 -7 10 6 5 12 -15 20 -26
10 -26 11 -4 7 14 -3 54 -10 90 -16z"/>
</g>
</svg>
